<svg width="102" height="102" viewBox="0 0 102 102" fill="none" xmlns="http://www.w3.org/2000/svg">
<path d="M66.5125 85.425H37.4C37.4 88.1875 36.3375 90.95 34.425 92.8625C30.3875 96.9 23.8 96.9 19.7625 92.8625C17.85 90.95 16.7875 88.1875 16.7875 85.425H8.075V81.175H64.8125C65.6625 77.775 67.3625 74.5875 69.9125 72.0375C72.8875 69.0625 76.925 67.15 81.175 66.725V52.0625H87.3375V43.775H91.5875V56.3125H85.2125V66.9375V71.1875V85.6375H80.9625V79.6875C80.1125 79.9 79.2625 80.5375 78.625 81.175C76.2875 83.725 76.2875 87.55 78.625 90.1C81.175 92.4375 85 92.4375 87.55 90.1C88.825 88.825 89.4625 87.3375 89.4625 85.6375H93.7125C93.7125 88.4 92.65 91.1625 90.7375 93.075C86.7 97.1125 80.1125 97.1125 76.075 93.075C72.0375 89.0375 72.0375 82.45 76.075 78.4125C77.5625 76.925 79.2625 76.075 81.3875 75.65V71.4C78.2 71.825 75.4375 73.3125 73.1 75.4375C70.3375 78.2 68.85 81.8125 68.85 85.85L66.5125 85.425ZM8.2875 47.8125V49.9375H19.125L20.4 43.775H0V39.525H25.5L25.075 42.075L22.95 52.4875L22.525 54.1875H4.25V48.025H8.2875V47.8125ZM52.7 27.4125C47.8125 32.3 39.95 32.3 35.0625 27.4125C30.175 22.525 30.175 14.6625 35.0625 9.775C39.95 4.8875 47.8125 4.8875 52.7 9.775C53.7625 11.05 54.825 12.325 55.25 13.8125C55.8875 15.3 56.1 17 56.3125 18.7V20.825H45.9V22.95H41.65V16.575H51.85C51.85 16.15 51.6375 15.725 51.425 15.5125C51 14.45 50.3625 13.6 49.725 12.75C46.5375 9.5625 41.225 9.5625 38.0375 12.75C34.85 15.9375 34.85 21.25 38.0375 24.4375C41.225 27.625 46.5375 27.625 49.725 24.4375L52.7 27.4125ZM45.9 54.1875H26.5625L27.2 51.6375L30.8125 35.4875H8.075V31.2375H35.9125L35.275 34L31.875 49.9375H45.9V54.1875ZM4.0375 58.4375H61.2L60.35 61.2L56.95 73.1H62.475V77.35H51.425L52.275 74.5875L55.675 62.6875H38.675C43.1375 66.3 45.6875 71.6125 45.6875 77.35H41.4375C41.4375 69.275 35.0625 62.9 26.9875 62.6875H26.5625C22.7375 62.6875 19.125 64.175 16.3625 66.9375C13.6 69.7 12.1125 73.3125 12.1125 77.35H7.8625C7.8625 72.4625 9.775 67.575 13.3875 64.175C13.8125 63.75 14.2375 63.325 14.875 62.9H4.0375V58.4375ZM16.575 77.1375C16.575 74.375 17.6375 71.6125 19.55 69.7C21.4625 67.7875 24.225 66.725 26.9875 66.725V70.975C25.2875 70.975 23.8 71.6125 22.525 72.8875C21.25 74.1625 20.6125 75.65 20.6125 77.35L16.575 77.1375ZM66.9375 53.7625H57.8L57.1625 53.125L46.75 42.7125C44.2 40.375 44.2 36.3375 46.5375 33.7875C46.5375 33.7875 46.5375 33.7875 46.75 33.575C49.0875 31.2375 53.125 31.2375 55.675 33.575L63.325 41.225H77.1375C81.175 41.225 84.3625 44.4125 84.3625 48.45H80.1125C80.1125 46.75 78.625 45.2625 76.925 45.2625C75.225 45.2625 73.7375 46.75 73.7375 48.45C73.7375 50.15 75.225 51.6375 76.925 51.6375V64.175H72.675V54.6125C72.25 54.4 72.0375 54.1875 71.6125 53.7625C69.4875 51.6375 68.85 48.2375 70.125 45.475H61.625L60.9875 44.8375L52.7 36.55C51.85 35.7 50.575 35.7 49.725 36.55C48.875 37.4 48.875 38.675 49.725 39.525L59.5 49.3H66.9375V53.7625ZM89.4625 67.7875C96.9 70.3375 102 77.5625 102 85.425H97.75C97.75 79.6875 94.5625 74.5875 89.4625 72.25V67.7875ZM33.15 85.425H20.6125C20.6125 87.125 21.25 88.6125 22.525 89.8875C25.075 92.225 28.9 92.225 31.45 89.8875C32.5125 88.6125 33.15 87.125 33.15 85.425Z" fill="#003EE2"/>
</svg>
