<svg width="102" height="102" viewBox="0 0 102 102" fill="none" xmlns="http://www.w3.org/2000/svg">
<g clip-path="url(#clip0_402_536)">
<path d="M57.8 102H3.39999V9.1375H23.8V4.4625H33.7875L35.275 1.275L35.9125 0H47.8125L48.45 1.275L50.15 4.4625H60.1375V8.925H80.5375V52.0625H76.075V13.6H60.1375V20.4H28.2625V15.9375H55.4625V9.1375H47.3875L46.75 7.8625L45.05 4.675H38.675L36.975 7.8625L36.3375 9.1375H28.2625V13.6H7.86249V97.5375H57.8V102ZM87.7625 73.3125L75.0125 86.0625L73.3125 87.7625L71.6125 86.0625L63.9625 78.4125L67.15 75.225L73.1 81.175L84.15 70.125L87.7625 73.3125ZM92.0125 63.325C100.937 72.25 100.937 86.4875 92.0125 95.4125C83.0875 104.338 68.85 104.338 59.925 95.4125C51 86.4875 51 72.25 59.925 63.325C68.85 54.4 83.0875 54.4 92.0125 63.325ZM94.1375 79.2625C94.1375 69.275 86.0625 61.2 75.8625 61.2C70.975 61.2 66.5125 63.1125 63.1125 66.5125C56.1 73.525 56.1 85 63.1125 92.225C70.125 99.2375 81.6 99.2375 88.825 92.225C92.225 88.825 94.1375 84.3625 94.1375 79.2625ZM17 72.4625H37.4V76.925H17V72.4625ZM17 63.5375H46.5375V68H17V63.5375ZM17 49.9375H66.9375V54.4H17V49.9375ZM17 31.6625H66.9375V36.125H17C17 36.3375 17 31.6625 17 31.6625ZM17 40.8H66.9375V45.2625H17V40.8Z" fill="#003EE2"/>
</g>
<defs>
<clipPath id="clip0_402_536">
<rect width="102" height="102" fill="white"/>
</clipPath>
</defs>
</svg>
