<svg width="102" height="102" viewBox="0 0 102 102" fill="none" xmlns="http://www.w3.org/2000/svg">
<g clip-path="url(#clip0_402_534)">
<path d="M87.125 66.9375C87.125 64.6 85.2125 62.6875 82.875 62.6875C81.8125 62.6875 80.75 63.1125 79.9 63.9625L69.275 74.5875L68.6375 75.225H61.625C56.95 75.225 53.125 79.05 53.125 83.725V101.15H48.875V83.725C48.875 79.05 45.05 75.225 40.375 75.225H33.3625L32.725 74.5875L22.1 63.9625C20.4 62.2625 17.85 62.2625 16.15 63.9625C15.3 64.8125 14.875 65.875 14.875 66.9375C14.875 68 15.3 69.0625 16.15 69.9125L31.025 84.7875L28.05 87.975L13.175 73.1C11.475 71.4 10.625 69.275 10.625 66.9375V48.025C10.625 45.6875 8.7125 43.775 6.375 43.775V39.525C7.8625 39.525 9.35 39.95 10.625 40.5875V24.0125L11.6875 23.375L21.25 17.85L24.4375 15.9375L30.8125 12.325L37.1875 8.7125L38.25 8.075L49.9375 1.275L51 0.849998L52.0625 1.4875L71.1875 12.5375L90.3125 23.5875L91.375 24.225V41.0125C92.65 40.375 94.1375 39.95 95.625 39.95V44.2C94.5625 44.2 93.5 44.625 92.65 45.475C92.0125 46.1125 91.375 47.175 91.375 48.2375V59.075V67.15C91.375 69.4875 90.525 71.6125 88.825 73.1L73.95 87.975L70.975 85L85.85 70.125C86.7 69.275 87.125 68.2125 87.125 66.9375ZM51 76.7125C53.3375 73.3125 57.1625 71.1875 61.4125 70.975H66.9375L76.925 60.9875C79.6875 58.225 83.9375 57.8 87.125 59.7125V26.5625L69.0625 16.15L51 5.7375L42.5 10.625L76.5 30.175L82.6625 26.5625L84.7875 30.175L78.625 33.7875V45.2625L77.5625 45.9L64.8125 53.3375L61.625 55.25V43.775L53.125 48.6625V70.3375H48.875V48.6625L17.2125 30.3875L19.3375 26.775L51 44.8375L59.5 39.95L25.5 20.4L14.875 26.5625V58.8625V59.7125C18.275 57.8 22.3125 58.4375 25.075 60.9875L35.0625 70.975H40.5875C44.8375 70.975 48.6625 73.3125 51 76.7125ZM25.5 101.362V97.9625L0.6375 72.8875L0 72.4625V39.525H4.25V70.55L29.1125 95.4125L29.75 96.05V101.15H25.5V101.362ZM63.75 37.4L69.0625 34.425L71.1875 38.0375L65.875 41.225V47.8125L74.375 42.925V34L38.25 12.9625L32.9375 15.9375L29.75 17.85L63.75 37.4ZM72.25 101.362V96.2625L72.8875 95.625L97.75 70.55V39.525H102V72.25L101.363 72.8875L76.5 97.9625V101.362H72.25Z" fill="#003EE2"/>
</g>
<defs>
<clipPath id="clip0_402_534">
<rect width="102" height="102" fill="white"/>
</clipPath>
</defs>
</svg>
