<svg width="102" height="102" viewBox="0 0 102 102" fill="none" xmlns="http://www.w3.org/2000/svg">
<path d="M44.8375 56.525C45.05 62.9 47.3875 68.85 51.6375 73.525C57.1625 79.475 63.9625 84.3625 71.4 87.55C78.8375 84.15 85.6375 79.475 91.1625 73.525C95.4125 68.85 97.9625 62.9 97.9625 56.525V29.5375H44.8375V56.525ZM62.6875 49.9375L69.275 56.525L84.15 39.7375L87.125 42.5L70.975 60.9875L69.4875 62.6875L68 60.9875L59.925 52.9125L62.6875 49.9375ZM43.775 2.125L64.175 13.8125L77.1375 21.25H69.0625L62.2625 17.425L44.8375 7.4375V21.25H40.8V7.4375L23.375 17.425L9.5625 25.5H36.7625V29.5375H9.5625L40.8 47.6V25.5H102V56.7375C101.787 63.9625 99.025 70.975 94.1375 76.2875C87.975 82.875 80.5375 88.1875 72.25 91.8L71.4 92.225L70.55 91.8C62.2625 88.1875 54.825 82.875 48.6625 76.2875C47.175 74.5875 46.1125 72.8875 44.8375 71.1875V94.775L40.375 97.5375L39.3125 98.175L38.25 97.5375L17.85 85.85L1.0625 76.5L0 75.65V26.35L1.0625 25.7125L21.4625 14.025L41.8625 2.125L42.925 1.4875L43.775 2.125ZM20.4 66.3V82.6625H20.1875L23.375 84.575L40.8 94.5625V52.0625L4.0375 30.8125V73.3125L8.075 75.65V62.2625H12.1125V77.9875L16.15 80.325V66.3H20.4Z" fill="#003EE2"/>
</svg>
