<svg width="124" height="925" viewBox="0 0 124 925" fill="none" xmlns="http://www.w3.org/2000/svg">
<path d="M43.9124 84.8364V904.17" stroke="#E0E0E0" stroke-width="16"/>
<path d="M80.6261 53.0772L80.6261 35.0648L64.0924 35.0648L64.0924 53.0772L80.6261 53.0772Z" fill="#7EA1A9"/>
<path d="M55.2452 88.9482L32.1611 88.9482L32.1611 77.292L33.3737 77.292L33.3737 67.6906C29.4217 62.2562 21.0938 53.482 21.0938 43.9189C21.0938 34.3559 29.4217 26.0203 33.3737 20.5859L33.3738 12.0406L32.1611 12.0406L32.1611 0.365233L55.2452 0.365234L55.2452 12.0406L53.8484 12.0406L53.8484 20.317C57.9196 25.7707 64.9266 33.768 64.9266 43.5039C64.9266 53.2397 57.9087 62.525 53.8484 67.9595L53.8484 77.292L55.2452 77.292L55.2452 88.9482Z" fill="#92CDD9"/>
<path d="M49.383 70.6862C49.9783 69.7068 50.3431 68.5355 50.3431 67.2873C50.3431 65.8471 49.863 64.5029 49.0757 63.4275C55.9311 61.584 61.3464 56.1688 63.1899 49.3134C64.2844 50.1199 65.6094 50.5808 67.0497 50.5808C68.2786 50.5808 69.45 50.2159 70.4485 49.6014C68.2786 60.1822 59.9638 68.4971 49.383 70.6862Z" fill="#FC6D06"/>
<path d="M38.2837 70.6862C27.8373 68.5163 19.5993 60.3743 17.3142 49.9855C18.1399 50.3696 19.0616 50.5808 20.0218 50.5808C21.6732 50.5808 23.2094 49.9471 24.3616 48.9102C26.1091 55.9768 31.6011 61.5457 38.6102 63.4275C37.8228 64.5029 37.3428 65.8279 37.3428 67.2873C37.3428 68.5355 37.7076 69.7069 38.3029 70.6862L38.2837 70.6862Z" fill="#FC6D06"/>
<path d="M20.0218 37.5805C19.0616 37.5805 18.1591 37.7917 17.3141 38.1758C19.5993 27.7486 27.8949 19.5873 38.3989 17.4558C37.7268 18.4736 37.3428 19.6834 37.3428 21.0084C37.3428 22.3334 37.7844 23.6968 38.5333 24.7529C31.5627 26.654 26.109 32.2421 24.3616 39.2703C23.2094 38.2334 21.6732 37.5996 20.0218 37.5996L20.0218 37.5805Z" fill="#FC6D06"/>
<path d="M63.1899 38.8479C61.3464 31.9924 55.9888 26.6156 49.1525 24.7529C49.9015 23.6968 50.3431 22.391 50.3431 21.0084C50.3431 19.6257 49.9591 18.4736 49.287 17.4558C59.887 19.6065 68.2786 27.9406 70.4485 38.5598C69.45 37.9453 68.2978 37.5805 67.0497 37.5805C65.6094 37.5805 64.2844 38.0605 63.1899 38.8479Z" fill="#FC6D06"/>
<path d="M43.8334 60.7776C42.5084 60.7776 41.2602 61.1808 40.2425 61.8529L40.2425 51.3682C38.6294 50.5616 37.3236 49.2751 36.5555 47.662L25.4178 47.662C26.1091 46.6251 26.5123 45.3769 26.5123 44.0711C26.5123 42.7653 26.1091 41.517 25.4178 40.4801L36.5555 40.4801C37.3428 38.867 38.6294 37.5613 40.2425 36.7739L40.2425 26.4236C41.2602 27.0957 42.5084 27.499 43.8334 27.499C45.1584 27.499 46.3874 27.1149 47.4243 26.4236L47.4243 36.7739C49.0374 37.5613 50.3432 38.867 51.1305 40.4801L61.6345 40.4801C60.9624 41.517 60.5399 42.7653 60.5399 44.0711C60.5399 45.3769 60.9432 46.6251 61.6345 47.662L51.1305 47.662C50.3432 49.2751 49.0374 50.5808 47.4243 51.3682L47.4243 61.8529C46.4066 61.1616 45.1776 60.7776 43.8334 60.7776Z" fill="#FC6D06"/>
<path d="M67.0497 50.5808C65.6094 50.5808 64.2844 50.1008 63.1899 49.3134C62.5754 48.8526 62.0569 48.3149 61.6344 47.662C60.9623 46.6251 60.5399 45.3769 60.5399 44.0711C60.5399 42.7653 60.9431 41.5171 61.6344 40.4801C62.0569 39.8464 62.5754 39.2895 63.1899 38.8287C64.2844 38.0414 65.6094 37.5613 67.0497 37.5613C68.2787 37.5613 69.45 37.9262 70.4486 38.5406C72.3112 39.6544 73.5594 41.7283 73.5594 44.0711C73.5594 46.4138 72.3304 48.4877 70.4486 49.6015C69.45 50.216 68.2979 50.5808 67.0497 50.5808Z" fill="#FC6D06"/>
<path d="M20.0218 50.5808C19.0617 50.5808 18.1591 50.3696 17.3142 49.9855C15.0674 48.9677 13.512 46.721 13.512 44.0902C13.512 41.4594 15.0674 39.1935 17.3142 38.1757C18.1399 37.7917 19.0617 37.5804 20.0218 37.5804C21.6733 37.5804 23.2094 38.2141 24.3616 39.2511C24.7649 39.6159 25.1489 40.0192 25.437 40.48C26.1283 41.517 26.5316 42.7652 26.5316 44.071C26.5316 45.3768 26.1283 46.625 25.437 47.662C25.1489 48.142 24.7841 48.5453 24.3616 48.8909C23.2094 49.9279 21.6733 50.5616 20.0218 50.5616L20.0218 50.5808Z" fill="#FC6D06"/>
<path d="M43.8334 73.7972C41.4906 73.7972 39.4359 72.5682 38.2837 70.6863C37.6884 69.7069 37.3236 68.5356 37.3236 67.2874C37.3236 65.8472 37.8037 64.503 38.591 63.4276C39.0326 62.8131 39.6088 62.2754 40.2425 61.8529C41.2602 61.1808 42.5084 60.7776 43.8334 60.7776C45.1584 60.7776 46.3874 61.1616 47.4243 61.8529C48.0772 62.2754 48.6341 62.8131 49.0757 63.4276C49.8631 64.503 50.3431 65.828 50.3431 67.2874C50.3431 68.5356 49.9975 69.7069 49.383 70.6863C48.25 72.549 46.1761 73.7972 43.8334 73.7972Z" fill="#FC6D06"/>
<path d="M43.8334 27.4989C42.5084 27.4989 41.2602 27.0956 40.2425 26.4235C39.5704 25.9627 38.9942 25.4058 38.5141 24.7337C37.7652 23.6776 37.3236 22.3718 37.3236 20.9892C37.3236 19.6065 37.7077 18.4544 38.3798 17.4366C39.5319 15.6507 41.529 14.4794 43.8334 14.4794C46.1377 14.4794 48.1348 15.6507 49.287 17.4366C49.9591 18.4544 50.3431 19.6642 50.3431 20.9892C50.3431 22.3142 49.9015 23.6776 49.1526 24.7337C48.6725 25.4058 48.0964 25.9627 47.4051 26.4235C46.3873 27.1149 45.1584 27.4989 43.8142 27.4989L43.8334 27.4989Z" fill="#FC6D06"/>
<path d="M43.8334 47.0667C42.1819 47.0667 40.8569 45.7224 40.8569 44.0902C40.8569 42.4579 42.2011 41.1138 43.8334 41.1138C45.4656 41.1138 46.8098 42.4579 46.8098 44.0902C46.8098 45.7224 45.4656 47.0667 43.8334 47.0667Z" fill="#FC6D06"/>
<g style="mix-blend-mode:multiply">
<path d="M49.0757 63.4276C48.6341 62.8131 48.0772 62.2946 47.4243 61.8529L47.4243 51.3681C49.0374 50.5808 50.3432 49.275 51.1113 47.6812L61.6345 47.6812C62.0569 48.3148 62.5754 48.8526 63.1899 49.3326C61.3464 56.1881 55.9504 61.6033 49.0757 63.4276Z" fill="#CAD7D8"/>
</g>
<g style="mix-blend-mode:multiply">
<path d="M38.6102 63.4276C31.6011 61.5457 26.0899 55.9576 24.3616 48.9102C24.7649 48.5453 25.1297 48.142 25.437 47.6812L36.5554 47.6812C37.3428 49.2942 38.6486 50.6 40.2424 51.3681L40.2424 61.8529C39.6087 62.2754 39.0326 62.8131 38.591 63.4276L38.6102 63.4276Z" fill="#CAD7D8"/>
</g>
<g style="mix-blend-mode:multiply">
<path d="M36.5554 40.4993L25.437 40.4993C25.1297 40.0192 24.7649 39.616 24.3616 39.2703C26.0899 32.2421 31.5435 26.654 38.5141 24.7529C38.9942 25.4058 39.5703 25.9819 40.2424 26.4428L40.2424 36.7739C38.6294 37.5805 37.3236 38.8862 36.5554 40.4801L36.5554 40.4993Z" fill="#CAD7D8"/>
</g>
<g style="mix-blend-mode:multiply">
<path d="M61.6344 40.4993L51.1113 40.4993C50.324 38.8862 49.0182 37.5804 47.4243 36.7931L47.4243 26.462C48.0964 26.0011 48.6917 25.425 49.1526 24.7721C55.9888 26.654 61.3464 32.0116 63.1899 38.867C62.5754 39.3087 62.0569 39.8656 61.6344 40.5185L61.6344 40.4993Z" fill="#CAD7D8"/>
</g>
<g style="mix-blend-mode:multiply">
<path d="M40.2424 61.8529L40.2424 51.3681C38.6102 50.5808 37.3236 49.275 36.5555 47.6811L25.4178 47.6811C26.1091 46.625 26.5315 45.396 26.5315 44.071L39.071 44.071C39.071 46.7018 41.2026 48.8333 43.8334 48.8333L43.8334 60.7775C42.4892 60.7775 41.2602 61.1808 40.2424 61.8529Z" fill="#DEBFAC"/>
</g>
<g style="mix-blend-mode:multiply">
<path d="M40.2424 36.7547L40.2424 26.4427C41.2602 27.0956 42.4892 27.5181 43.8334 27.5181L43.8334 35.929C42.5468 35.929 41.3178 36.2362 40.2424 36.7739L40.2424 36.7547Z" fill="#DEBFAC"/>
</g>
<g style="mix-blend-mode:multiply">
<path d="M61.6345 47.6811L51.1497 47.6811C51.6874 46.5866 51.9946 45.3768 51.9946 44.071L60.5399 44.071C60.5399 45.396 60.9432 46.625 61.6345 47.6811Z" fill="#DEBFAC"/>
</g>
<g style="mix-blend-mode:multiply">
<path d="M67.0497 50.6001C65.6287 50.6001 64.2844 50.12 63.1899 49.3327C62.5754 48.8718 62.0569 48.3149 61.6344 47.6812C60.9623 46.625 60.5399 45.3961 60.5399 44.0711C60.5399 42.7461 60.9431 41.5171 61.6344 40.4801C62.0377 39.8464 62.5754 39.3087 63.1899 38.8287C64.2844 38.0222 65.6287 37.5613 67.0497 37.5613C67.8562 37.5613 68.6051 37.7149 69.2964 37.9837C68.5091 37.9837 67.7986 38.2526 67.1841 38.6366C66.8 38.9055 66.4352 39.2512 66.1471 39.6352C65.6479 40.3073 65.3406 41.1522 65.3406 42.0548C65.3406 42.8421 65.571 43.591 65.9551 44.2055C66.6656 45.3768 67.9714 46.1642 69.45 46.1642C70.9287 46.1642 72.2344 45.3768 72.9449 44.2055C73.1754 43.8214 73.3482 43.399 73.4442 42.9573C73.521 43.3221 73.5594 43.6678 73.5594 44.0519C73.5594 46.4138 72.3112 48.4685 70.4486 49.5823C69.45 50.216 68.2978 50.5616 67.0304 50.5616L67.0497 50.6001Z" fill="#DEBFAC"/>
</g>
<g style="mix-blend-mode:multiply">
<path d="M20.0026 50.6001C19.0424 50.6001 18.1207 50.3888 17.3142 49.9856C15.0674 48.987 13.512 46.7211 13.512 44.0711C13.512 41.4211 15.0674 39.1743 17.3142 38.1758C18.1399 37.7725 19.0424 37.5613 20.0026 37.5613C20.7899 37.5613 21.558 37.7149 22.2685 37.9645C21.4236 37.9645 20.6555 38.2334 20.0218 38.6366C19.6185 38.9055 19.2537 39.2512 18.9848 39.6352C18.4855 40.3073 18.1783 41.1522 18.1783 42.0548C18.1783 42.8421 18.4087 43.591 18.7928 44.2055C19.5033 45.3768 20.8091 46.1642 22.2877 46.1642C23.7663 46.1642 25.0722 45.3768 25.7827 44.2055C26.0707 43.7446 26.2627 43.2069 26.3587 42.65C26.4547 43.0917 26.5123 43.5526 26.5123 44.0519C26.5123 45.3769 26.1091 46.6059 25.3986 47.662C25.1105 48.1229 24.7457 48.5453 24.3425 48.891C23.1903 49.9279 21.654 50.5616 19.9834 50.5616L20.0026 50.6001Z" fill="#DEBFAC"/>
</g>
<g style="mix-blend-mode:multiply">
<path d="M43.8334 73.7971C41.4906 73.7971 39.4359 72.5682 38.2837 70.6863C37.6884 69.7069 37.3236 68.5356 37.3236 67.2874C37.3236 65.828 37.8037 64.503 38.6102 63.4276C39.0327 62.8131 39.6088 62.2754 40.2425 61.8338C41.2602 61.1809 42.4892 60.7584 43.8334 60.7584C44.2751 60.7584 44.6975 60.7968 45.1008 60.8928C44.6399 61.008 44.1982 61.2001 43.7949 61.4497C43.3917 61.7185 43.0461 62.0642 42.758 62.4482C42.2588 63.1203 41.9515 63.9653 41.9515 64.8678C41.9515 65.6551 42.1819 66.3848 42.566 67.0185C43.2765 68.1899 44.5823 68.9773 46.0609 68.9773C47.5396 68.9773 48.8453 68.1899 49.5558 67.0185C49.8054 66.5961 49.9975 66.116 50.0935 65.5975C50.2471 66.1352 50.324 66.7113 50.324 67.2874C50.324 68.5356 49.9591 69.6877 49.383 70.6863C48.2308 72.5682 46.1761 73.7971 43.8334 73.7971Z" fill="#DEBFAC"/>
</g>
<g style="mix-blend-mode:multiply">
<path d="M43.8334 27.5181C42.4892 27.5181 41.2602 27.1148 40.2425 26.4427C39.5704 25.9818 38.975 25.4057 38.5141 24.7528C37.7652 23.6967 37.3236 22.3909 37.3236 21.0083C37.3236 19.7025 37.7268 18.4735 38.3989 17.475C39.5319 15.6699 41.5482 14.5177 43.8334 14.5177C44.2558 14.5177 44.6783 14.5561 45.0816 14.6521C44.6207 14.7481 44.1982 14.9594 43.7949 15.209C43.3917 15.4778 43.0461 15.8235 42.758 16.2076C42.2588 16.8797 41.9515 17.7246 41.9515 18.6271C41.9515 19.4144 42.1819 20.1442 42.566 20.7779C43.2765 21.9492 44.5823 22.7365 46.0609 22.7365C47.5396 22.7365 48.8453 21.9492 49.5558 20.7779C49.8054 20.3554 49.9975 19.8753 50.0935 19.3568C50.2471 19.8945 50.324 20.4706 50.324 21.0275C50.324 22.4101 49.9015 23.7159 49.1526 24.772C48.6917 25.4249 48.0964 26.001 47.4051 26.4619C46.3873 27.134 45.1776 27.5373 43.8334 27.5373L43.8334 27.5181Z" fill="#DEBFAC"/>
</g>
<path d="M92.7832 65.327C104.475 68.1015 116.201 60.873 118.976 49.1817C121.75 37.4904 114.522 25.7636 102.83 22.9891C91.1392 20.2146 79.4124 27.4431 76.6379 39.1344C73.8634 50.8257 81.0919 62.5525 92.7832 65.327Z" fill="#FC6D06"/>
<path d="M97.8127 63.082C87.3279 63.082 78.8211 54.575 78.8211 44.0903C78.8211 33.6055 87.3279 25.0986 97.8127 25.0986C108.297 25.0986 116.804 33.6055 116.804 44.0903C116.804 54.5751 108.297 63.082 97.8127 63.082Z" fill="#D6E0E0"/>
<path d="M102.037 39.8464C101.442 38.195 100.482 36.7163 99.2529 35.4874L104.111 30.629C106.012 32.5301 107.529 34.8537 108.47 37.4461L102.037 39.8272L102.037 39.8464Z" fill="#56AE2C"/>
<path d="M108.95 49.275L102.364 47.3931C102.652 46.3369 102.825 45.2424 102.825 44.1094C102.825 42.6116 102.556 41.1906 102.057 39.8656L108.49 37.4844C109.258 39.5583 109.68 41.7667 109.68 44.1286C109.68 45.9337 109.43 47.6619 108.95 49.3134L108.95 49.275Z" fill="#F0F220"/>
<path d="M104.111 57.513L99.2529 52.6547C100.693 51.2145 101.788 49.4094 102.345 47.3739L108.931 49.2557C108.067 52.405 106.358 55.2471 104.111 57.4938L104.111 57.513Z" fill="#F98A1F"/>
<path d="M92.3399 34.5656L92.3399 30.725L87.5392 30.725L87.5392 34.5656L92.3399 34.5656Z" fill="#0C4352"/>
<path d="M90.7076 31.5508C91.0341 31.5508 91.2837 31.666 91.4566 31.8964C91.6102 32.0884 91.687 32.3573 91.687 32.6837C91.687 32.991 91.6102 33.2406 91.4374 33.4518C91.2645 33.6631 91.0725 33.7783 90.8421 33.7783C90.5924 33.7783 90.3812 33.7015 90.1508 33.5671C90.0356 33.4903 89.8243 33.3174 89.5171 33.0486C89.4403 32.9718 89.3058 32.8566 89.133 32.7222L88.9794 32.6069C88.9794 32.6069 88.8258 32.4725 88.7682 32.4341C88.749 32.4149 88.7298 32.4149 88.7106 32.4149L88.7106 33.7591L88.1921 33.7591L88.1921 31.5892L88.6721 31.5892C88.6721 31.5892 88.749 31.6468 88.8642 31.7428C88.9218 31.7812 88.9794 31.8388 89.037 31.8964L89.229 32.0692C89.3443 32.1653 89.5171 32.3381 89.7475 32.5493C89.9779 32.7605 90.17 32.9142 90.362 33.0102C90.5156 33.087 90.6501 33.1446 90.7845 33.1446C90.8805 33.1446 90.9765 33.1062 91.0533 33.0294C91.1301 32.9526 91.1685 32.8374 91.1685 32.7029C91.1685 32.5109 91.0917 32.3765 90.9189 32.2997C90.8613 32.2805 90.8037 32.2613 90.7269 32.2613L90.5924 32.2613L90.5924 31.5892L90.6885 31.5892L90.7076 31.5508Z" fill="white"/>
<path d="M92.3399 39.1359L92.3399 35.2953L87.5392 35.2953L87.5392 39.1359L92.3399 39.1359Z" fill="#0C4352"/>
<path d="M88.1921 36.9852L90.8805 36.9852L90.8805 36.4091L91.2453 36.4091C91.2453 36.5627 91.3029 36.7355 91.3798 36.87C91.4566 37.0236 91.5526 37.1196 91.6678 37.1964L91.6678 37.6765L88.1729 37.6765L88.1729 37.0043L88.1921 36.9852Z" fill="white"/>
<path d="M92.3399 43.7062L92.3399 39.8656L87.5392 39.8656L87.5392 43.7062L92.3399 43.7062Z" fill="#0C4352"/>
<path d="M91.1685 41.4402L90.4196 41.4402C90.4196 41.4402 90.554 41.6131 90.5924 41.7283C90.6116 41.7859 90.6308 41.8627 90.6308 41.9587C90.6308 42.266 90.554 42.4772 90.3812 42.6116C90.2468 42.7268 90.0548 42.8037 89.7859 42.8037L89.037 42.8037C88.7874 42.8037 88.5569 42.6884 88.4033 42.4772C88.2497 42.266 88.1729 42.0163 88.1729 41.7091C88.1729 41.4018 88.2497 41.1714 88.4225 40.9602C88.5761 40.7681 88.7682 40.6721 88.9986 40.6721L89.0754 40.6721L89.1138 41.325L88.9986 41.325C88.8642 41.3634 88.7682 41.4211 88.7106 41.5555C88.7106 41.5939 88.6914 41.6323 88.6914 41.6707C88.6914 41.9588 88.8066 42.0932 89.037 42.0932L89.9011 42.0932C89.9971 42.0932 90.0932 42.0547 90.1508 41.9395C90.1892 41.9011 90.2084 41.8243 90.2084 41.7475C90.2084 41.6323 90.17 41.5363 90.0932 41.4787C90.0356 41.4211 89.9587 41.4018 89.8819 41.4018L89.7859 41.4018L89.7859 40.7297L91.687 40.7297L91.687 42.7268L91.1685 42.7268L91.1685 41.4211L91.1685 41.4402Z" fill="white"/>
<path d="M92.3399 48.2957L92.3399 44.4551L87.5392 44.4551L87.5392 48.2957L92.3399 48.2957Z" fill="#0C4352"/>
<path d="M89.4787 45.2616L91.687 46.4714L91.687 47.1434L89.4787 47.1434L89.4787 47.5851L88.941 47.5851L88.941 47.1434L88.1921 47.1434L88.1921 46.4714L88.941 46.4714L88.941 45.2616L89.4787 45.2616ZM89.4787 46.4714L90.5732 46.4714L89.4787 45.9145L89.4787 46.4714Z" fill="white"/>
<path d="M92.3399 52.866L92.3399 49.0254L87.5392 49.0254L87.5392 52.866L92.3399 52.866Z" fill="#0C4352"/>
<path d="M90.8228 51.1761L90.9188 51.1761C90.9188 51.1761 91.0724 51.1378 91.1301 51.0801C91.1877 51.0225 91.2261 50.9457 91.2261 50.8305C91.2261 50.7153 91.2069 50.6385 91.1301 50.5808C91.0724 50.5232 90.9956 50.4849 90.9188 50.4849L90.2275 50.4849C90.3427 50.6385 90.3811 50.8113 90.3811 51.0033C90.3811 51.3106 90.3043 51.5218 90.1507 51.6754C90.0163 51.8098 89.8051 51.8675 89.5554 51.8675L88.9601 51.8675C88.7297 51.8675 88.5569 51.7522 88.4032 51.5602C88.2496 51.3682 88.1728 51.1378 88.1728 50.8497C88.1728 50.5425 88.2496 50.312 88.4225 50.1008C88.5761 49.9087 88.7681 49.8127 88.9985 49.8127L90.8996 49.8127C91.0725 49.8127 91.2261 49.8703 91.3605 49.9663C91.4949 50.0624 91.6101 50.216 91.6677 50.4273C91.7061 50.5617 91.7253 50.6961 91.7253 50.8305C91.7253 51.1377 91.6486 51.3682 91.4757 51.5794C91.3221 51.7715 91.1301 51.8675 90.8996 51.8675L90.8228 51.8675L90.8228 51.157L90.8228 51.1761ZM88.9985 50.504C88.9985 50.504 88.8449 50.5232 88.7873 50.5808C88.7297 50.6385 88.6913 50.7345 88.6913 50.8305C88.6913 50.9265 88.7297 51.0225 88.7873 51.0801C88.8449 51.1378 88.9217 51.1761 88.9985 51.1761L89.6515 51.1761C89.7475 51.1761 89.8243 51.1186 89.9011 51.0225C89.9395 50.9841 89.9395 50.9073 89.9395 50.8305C89.9395 50.7153 89.9011 50.6192 89.8243 50.5616C89.7667 50.504 89.6898 50.4849 89.6322 50.4849L88.9985 50.4849L88.9985 50.504Z" fill="white"/>
<path d="M92.3399 57.4363L92.3399 53.5957L87.5392 53.5957L87.5392 57.4363L92.3399 57.4363Z" fill="#0C4352"/>
<path d="M88.9986 56.6105C88.7681 56.6105 88.5761 56.5145 88.4033 56.3032C88.2497 56.092 88.1729 55.8424 88.1729 55.5351L88.1729 55.4775C88.1729 55.1703 88.2497 54.9206 88.4225 54.7094C88.5761 54.4981 88.7874 54.4021 89.0178 54.4021L89.3442 54.4021C89.5555 54.4021 89.7475 54.4981 89.9011 54.671C89.9779 54.7478 90.0355 54.8438 90.0739 54.9398C90.1507 54.7478 90.266 54.6134 90.4388 54.5174C90.5156 54.4598 90.6308 54.4405 90.7652 54.4405L90.9573 54.4405C91.1877 54.4405 91.3797 54.5365 91.5141 54.7094C91.687 54.9014 91.7638 55.1511 91.7638 55.4775L91.7638 55.5351C91.7638 55.8616 91.687 56.1112 91.5141 56.3032C91.3605 56.4761 91.1685 56.5529 90.9573 56.5529L90.7652 56.5529C90.554 56.5529 90.362 56.4761 90.2276 56.3032C90.1699 56.2264 90.1123 56.1496 90.0739 56.0536C89.9779 56.2456 89.8627 56.4184 89.6707 56.5144C89.5747 56.572 89.4595 56.5913 89.3442 56.5913L89.0178 56.5913L88.9986 56.6105ZM90.7845 55.9576C91.0149 55.9576 91.1685 55.8615 91.2261 55.6695C91.2261 55.6311 91.2453 55.5735 91.2453 55.5159C91.2453 55.4007 91.2261 55.3047 91.1685 55.2279C91.1301 55.1703 91.0725 55.1318 91.0149 55.0934C90.9573 55.0742 90.8613 55.055 90.7845 55.0742C90.6308 55.0742 90.5156 55.1127 90.458 55.1703C90.362 55.2471 90.3236 55.3623 90.3236 55.5159C90.3236 55.6695 90.362 55.8039 90.458 55.8615C90.5348 55.9191 90.65 55.9576 90.7845 55.9576ZM89.2482 55.9384C89.4595 55.9384 89.5939 55.8807 89.6707 55.7463C89.7091 55.6887 89.7283 55.6119 89.7283 55.5159C89.7283 55.3431 89.6707 55.2086 89.5555 55.151C89.4787 55.1126 89.3826 55.0934 89.2674 55.0934L89.0946 55.0934C88.9794 55.0934 88.8834 55.1319 88.8066 55.2279C88.749 55.3047 88.7105 55.4007 88.7105 55.5159C88.7105 55.7079 88.7874 55.8232 88.9218 55.9C88.9602 55.9192 89.0178 55.9384 89.0754 55.9384L89.2482 55.9384Z" fill="white"/>
<path d="M100.578 31.3011C99.7714 31.3011 99.1185 30.6482 99.1185 29.8417C99.1185 29.0351 99.7714 28.363 100.578 28.363C101.384 28.363 102.037 29.0159 102.037 29.8417C102.037 30.6674 101.384 31.3011 100.578 31.3011Z" fill="#E0EDEE"/>
<path d="M95.4124 31.3011C94.6058 31.3011 93.9529 30.6482 93.9529 29.8417C93.9529 29.0351 94.6058 28.363 95.4124 28.363C96.2189 28.363 96.8718 29.0159 96.8718 29.8417C96.8718 30.6674 96.2189 31.3011 95.4124 31.3011Z" fill="#E0EDEE"/>
<path d="M100.578 60.0094C99.7714 60.0094 99.1185 59.3565 99.1185 58.55C99.1185 57.7434 99.7714 57.0906 100.578 57.0906C101.384 57.0906 102.037 57.7434 102.037 58.55C102.037 59.3565 101.384 60.0094 100.578 60.0094Z" fill="#E0EDEE"/>
<path d="M95.4124 60.0094C94.6058 60.0094 93.9529 59.3565 93.9529 58.55C93.9529 57.7434 94.6058 57.0906 95.4124 57.0906C96.2189 57.0906 96.8718 57.7434 96.8718 58.55C96.8718 59.3565 96.2189 60.0094 95.4124 60.0094Z" fill="#E0EDEE"/>
<path d="M97.2366 42.7844L104.457 49.9471L95.8732 44.4935L97.2366 42.7844Z" fill="#0C4352"/>
<g style="mix-blend-mode:multiply">
<path d="M108.317 59.9134C110.295 56.9178 111.466 53.3076 111.466 49.4286C111.466 38.9246 102.978 30.437 92.4743 30.437C88.5953 30.437 84.9851 31.5891 81.9895 33.5862C85.4076 28.4591 91.2261 25.0793 97.8319 25.0793C108.317 25.0793 116.824 33.5863 116.824 44.071C116.824 50.6768 113.444 56.4953 108.336 59.9134L108.317 59.9134Z" fill="#CAD7D8"/>
</g>
<g style="mix-blend-mode:multiply">
<path d="M92.3399 34.5656L92.3399 30.725L90.8613 30.725L90.8613 34.5656L92.3399 34.5656Z" fill="#DEBFAC"/>
</g>
<g style="mix-blend-mode:multiply">
<path d="M89.037 34.5656L89.037 30.725L87.5584 30.725L87.5584 34.5656L89.037 34.5656Z" fill="#DEBFAC"/>
</g>
<g style="mix-blend-mode:multiply">
<path d="M92.3399 39.1359L92.3399 35.2953L90.8613 35.2953L90.8613 39.1359L92.3399 39.1359Z" fill="#DEBFAC"/>
</g>
<g style="mix-blend-mode:multiply">
<path d="M89.037 39.1359L89.037 35.2953L87.5584 35.2953L87.5584 39.1359L89.037 39.1359Z" fill="#DEBFAC"/>
</g>
<g style="mix-blend-mode:multiply">
<path d="M92.3399 43.7062L92.3399 39.8656L90.8613 39.8656L90.8613 43.7062L92.3399 43.7062Z" fill="#DEBFAC"/>
</g>
<g style="mix-blend-mode:multiply">
<path d="M89.037 43.7062L89.037 39.8656L87.5584 39.8656L87.5584 43.7062L89.037 43.7062Z" fill="#DEBFAC"/>
</g>
<g style="mix-blend-mode:multiply">
<path d="M92.3399 48.2957L92.3399 44.4551L90.8613 44.4551L90.8613 48.2957L92.3399 48.2957Z" fill="#DEBFAC"/>
</g>
<g style="mix-blend-mode:multiply">
<path d="M89.037 48.2957L89.037 44.4551L87.5584 44.4551L87.5584 48.2957L89.037 48.2957Z" fill="#DEBFAC"/>
</g>
<g style="mix-blend-mode:multiply">
<path d="M92.3399 52.866L92.3399 49.0254L90.8613 49.0254L90.8613 52.866L92.3399 52.866Z" fill="#DEBFAC"/>
</g>
<g style="mix-blend-mode:multiply">
<path d="M89.037 52.866L89.037 49.0254L87.5584 49.0254L87.5584 52.866L89.037 52.866Z" fill="#DEBFAC"/>
</g>
<g style="mix-blend-mode:multiply">
<path d="M92.3399 57.4363L92.3399 53.5957L90.8613 53.5957L90.8613 57.4363L92.3399 57.4363Z" fill="#DEBFAC"/>
</g>
<g style="mix-blend-mode:multiply">
<path d="M89.037 57.4363L89.037 53.5957L87.5584 53.5957L87.5584 57.4363L89.037 57.4363Z" fill="#DEBFAC"/>
</g>
<g style="mix-blend-mode:multiply">
<path d="M38.8364 104.599L35.885 104.599L35.885 88.9482L51.9401 88.9482L51.9401 93.5185L38.8364 96.2838L38.8364 104.599Z" fill="#9AB7BD"/>
</g>
<path d="M33.8465 910.18L52.9287 910.18L52.9287 904.17L33.8465 904.17L33.8465 910.18Z" fill="#C45708"/>
<path d="M30.9589 924.461L55.8555 924.461L55.8555 910.14L30.9589 910.14L30.9589 924.461Z" fill="#FC6D06"/>
<path opacity="0.27" d="M48.9875 924.461L48.9875 914.823C48.9875 913.925 49.7289 913.184 50.6264 913.184L55.8555 913.184L55.8555 924.461L48.9875 924.461Z" fill="white"/>
<g style="mix-blend-mode:multiply" opacity="0.55">
<path d="M38.7239 924.461L38.7239 914.823C38.7239 913.925 39.4263 913.184 40.3628 913.184L46.4895 913.184C47.387 913.184 48.1284 913.925 48.1284 914.823L48.1284 924.461L38.7239 924.461Z" fill="#DCC6B8"/>
</g>
<g style="mix-blend-mode:multiply">
<path d="M30.9591 924.461L30.9591 913.184L36.1491 913.184C37.0467 913.184 37.7881 913.925 37.7881 914.823L37.7881 924.461L30.9591 924.461Z" fill="#DCC6B8"/>
</g>
<g style="mix-blend-mode:multiply">
<path d="M35.9265 904.17L51.8789 904.17L51.8789 898.824L35.9265 898.824L35.9265 904.17Z" fill="#DCC6B8"/>
</g>
<rect x="30.7666" y="258.232" width="18.9006" height="26.2921" transform="rotate(-90 30.7666 258.232)" fill="#D9D9D9"/>
<rect x="30.7666" y="156.439" width="18.9006" height="26.2921" transform="rotate(-90 30.7666 156.439)" fill="#D9D9D9"/>
<rect x="0.869629" y="241.802" width="87.7854" height="86.0856" rx="5" transform="rotate(-90 0.869629 241.802)" fill="#E9E9E9"/>
<path d="M25.2124 207.972C23.159 205.332 22.1324 201.918 22.1324 197.732C22.1324 193.545 23.159 190.145 25.2124 187.532C27.2924 184.892 30.399 183.572 34.5324 183.572C38.6657 183.572 41.759 184.892 43.8124 187.532C45.8924 190.145 46.9324 193.545 46.9324 197.732C46.9324 201.918 45.8924 205.332 43.8124 207.972C41.759 210.585 38.6657 211.892 34.5324 211.892C30.399 211.892 27.2924 210.585 25.2124 207.972ZM34.5324 206.612C38.799 206.612 40.9324 203.652 40.9324 197.732C40.9324 191.812 38.799 188.852 34.5324 188.852C30.2657 188.852 28.1324 191.812 28.1324 197.732C28.1324 203.652 30.2657 206.612 34.5324 206.612ZM57.2945 184.132H61.6545L61.6545 206.172H66.2145V211.332H50.6945V206.172H55.8145L55.8145 190.132L50.6945 192.052V186.652L57.2945 184.132Z" fill="#0A3CC2"/>
<rect x="30.7666" y="438.926" width="18.9006" height="26.2921" transform="rotate(-90 30.7666 438.926)" fill="#D9D9D9"/>
<rect x="30.7666" y="337.133" width="18.9006" height="26.2921" transform="rotate(-90 30.7666 337.133)" fill="#D9D9D9"/>
<rect x="0.869629" y="422.495" width="87.7854" height="86.0856" rx="5" transform="rotate(-90 0.869629 422.495)" fill="#E9E9E9"/>
<path d="M22.2124 388.666C20.159 386.026 19.1324 382.612 19.1324 378.426C19.1324 374.239 20.159 370.839 22.2124 368.226C24.2924 365.586 27.399 364.266 31.5324 364.266C35.6657 364.266 38.759 365.586 40.8124 368.226C42.8924 370.839 43.9324 374.239 43.9324 378.426C43.9324 382.612 42.8924 386.026 40.8124 388.666C38.759 391.279 35.6657 392.586 31.5324 392.586C27.399 392.586 24.2924 391.279 22.2124 388.666ZM31.5324 387.306C35.799 387.306 37.9324 384.346 37.9324 378.426C37.9324 372.506 35.799 369.546 31.5324 369.546C27.2657 369.546 25.1324 372.506 25.1324 378.426C25.1324 384.346 27.2657 387.306 31.5324 387.306ZM48.1745 367.146C50.8679 365.226 53.9879 364.266 57.5345 364.266C60.4412 364.266 62.8145 364.946 64.6545 366.306C66.5212 367.666 67.4545 369.666 67.4545 372.306C67.4545 374.359 66.7879 376.119 65.4545 377.586C64.1479 379.026 62.3612 380.412 60.0945 381.746C57.4279 383.319 55.7879 384.386 55.1745 384.946C54.4545 385.639 54.0812 386.292 54.0545 386.906L67.6545 386.866V392.026H47.2545V389.346C47.2545 387.879 47.4679 386.559 47.8945 385.386C48.3479 384.212 49.0679 383.159 50.0545 382.226C51.0679 381.292 51.9079 380.599 52.5745 380.146C53.2412 379.666 54.2545 379.026 55.6145 378.226C55.6945 378.172 55.7612 378.132 55.8145 378.106C55.8679 378.079 55.9345 378.039 56.0145 377.986C56.0945 377.932 56.1612 377.892 56.2145 377.866C56.3745 377.759 56.7079 377.572 57.2145 377.306C57.7479 377.012 58.0945 376.812 58.2545 376.706C58.4145 376.599 58.6945 376.426 59.0945 376.186C59.4945 375.919 59.7745 375.719 59.9345 375.586C60.0945 375.426 60.2945 375.212 60.5345 374.946C60.8012 374.679 60.9879 374.439 61.0945 374.226C61.2012 374.012 61.2945 373.759 61.3745 373.466C61.4545 373.172 61.4945 372.866 61.4945 372.546C61.4945 371.559 61.0945 370.812 60.2945 370.306C59.4945 369.772 58.3879 369.506 56.9745 369.506C53.9345 369.506 51.0012 370.586 48.1745 372.746V367.146Z" fill="#0A3CC2"/>
<rect x="30.7666" y="619.62" width="18.9006" height="26.2921" transform="rotate(-90 30.7666 619.62)" fill="#D9D9D9"/>
<rect x="30.7666" y="517.827" width="18.9006" height="26.2921" transform="rotate(-90 30.7666 517.827)" fill="#D9D9D9"/>
<rect x="0.869629" y="603.189" width="87.7854" height="86.0856" rx="5" transform="rotate(-90 0.869629 603.189)" fill="#E9E9E9"/>
<path d="M22.2124 569.359C20.159 566.719 19.1324 563.306 19.1324 559.119C19.1324 554.933 20.159 551.533 22.2124 548.919C24.2924 546.279 27.399 544.959 31.5324 544.959C35.6657 544.959 38.759 546.279 40.8124 548.919C42.8924 551.533 43.9324 554.933 43.9324 559.119C43.9324 563.306 42.8924 566.719 40.8124 569.359C38.759 571.973 35.6657 573.279 31.5324 573.279C27.399 573.279 24.2924 571.973 22.2124 569.359ZM31.5324 567.999C35.799 567.999 37.9324 565.039 37.9324 559.119C37.9324 553.199 35.799 550.239 31.5324 550.239C27.2657 550.239 25.1324 553.199 25.1324 559.119C25.1324 565.039 27.2657 567.999 31.5324 567.999ZM66.7345 552.479C66.7345 553.866 66.3612 555.079 65.6145 556.119C64.8945 557.133 63.8945 557.866 62.6145 558.319C64.1345 558.773 65.3879 559.586 66.3745 560.759C67.3612 561.906 67.8545 563.413 67.8545 565.279C67.8545 566.666 67.5479 567.893 66.9345 568.959C66.3479 569.999 65.5345 570.826 64.4945 571.439C63.4545 572.053 62.2945 572.506 61.0145 572.799C59.7612 573.119 58.4145 573.279 56.9745 573.279C53.6412 573.279 50.4945 572.666 47.5345 571.439V565.879C50.1479 567.346 53.1345 568.053 56.4945 567.999C58.1745 567.999 59.5345 567.706 60.5745 567.119C61.6145 566.533 62.1345 565.639 62.1345 564.439C62.1345 562.333 60.5612 561.279 57.4145 561.279H52.9345L52.9745 556.159L56.7345 556.199C58.0945 556.199 59.1479 555.959 59.8945 555.479C60.6679 554.973 61.0545 554.253 61.0545 553.319C61.0545 552.333 60.6279 551.573 59.7745 551.039C58.9212 550.479 57.6812 550.199 56.0545 550.199C53.3612 550.199 50.6812 551.013 48.0145 552.639V547.079C50.6279 545.666 53.5879 544.959 56.8945 544.959C59.8279 544.959 62.2012 545.613 64.0145 546.919C65.8279 548.226 66.7345 550.079 66.7345 552.479Z" fill="#0A3CC2"/>
<rect x="30.7666" y="800.314" width="18.9006" height="26.2921" transform="rotate(-90 30.7666 800.314)" fill="#D9D9D9"/>
<rect x="30.7666" y="698.521" width="18.9006" height="26.2921" transform="rotate(-90 30.7666 698.521)" fill="#D9D9D9"/>
<rect x="0.869629" y="783.883" width="87.7854" height="86.0856" rx="5" transform="rotate(-90 0.869629 783.883)" fill="#E9E9E9"/>
<path d="M21.2124 750.053C19.159 747.413 18.1324 744 18.1324 739.813C18.1324 735.627 19.159 732.227 21.2124 729.613C23.2924 726.973 26.399 725.653 30.5324 725.653C34.6657 725.653 37.759 726.973 39.8124 729.613C41.8924 732.227 42.9324 735.627 42.9324 739.813C42.9324 744 41.8924 747.413 39.8124 750.053C37.759 752.667 34.6657 753.973 30.5324 753.973C26.399 753.973 23.2924 752.667 21.2124 750.053ZM30.5324 748.693C34.799 748.693 36.9324 745.733 36.9324 739.813C36.9324 733.893 34.799 730.933 30.5324 730.933C26.2657 730.933 24.1324 733.893 24.1324 739.813C24.1324 745.733 26.2657 748.693 30.5324 748.693ZM59.5745 726.213H65.5345V743.453H69.6545V748.453H65.5345V753.413H59.8145V748.453H45.5345L45.5345 743.493L59.5745 726.213ZM59.8145 743.453L59.8145 733.533L51.7745 743.453H59.8145Z" fill="#0A3CC2"/>
</svg>
