<svg width="998" height="730" viewBox="0 0 998 730" fill="none" xmlns="http://www.w3.org/2000/svg">
<path d="M3.54517 79.5708H960.73C973.432 79.5708 983.73 89.8683 983.73 102.571V337.5C983.73 350.203 973.432 360.5 960.73 360.5H46.5452C33.8426 360.5 23.5452 370.797 23.5452 383.5V627.247C23.5452 639.95 33.8426 650.247 46.5452 650.247H505.881M505.881 650.247C505.881 676.45 505.881 728.854 505.881 728.854M505.881 650.247H983.73" stroke="#E0E0E0" stroke-width="16"/>
<rect x="148.849" y="66.8169" width="18.9006" height="26.2921" fill="#D9D9D9"/>
<rect x="283.62" y="66.8169" width="18.9006" height="26.2921" fill="#D9D9D9"/>
<rect x="997.342" y="129.765" width="33" height="19" transform="rotate(-180 997.342 129.765)" fill="#D5D5D5"/>
<rect x="997.342" y="317" width="33" height="19" transform="rotate(-180 997.342 317)" fill="#D5D5D5"/>
<rect x="39.3313" y="417.466" width="33" height="19" transform="rotate(-180 39.3313 417.466)" fill="#D5D5D5"/>
<rect x="39.3313" y="618" width="33" height="19" transform="rotate(-180 39.3313 618)" fill="#D5D5D5"/>
<rect x="924.825" y="96.0547" width="33" height="19" transform="rotate(-90 924.825 96.0547)" fill="#D5D5D5"/>
<rect x="924.825" y="377.665" width="33" height="19" transform="rotate(-90 924.825 377.665)" fill="#D5D5D5"/>
<rect x="64.0181" y="378.042" width="33" height="19" transform="rotate(-90 64.0181 378.042)" fill="#D5D5D5"/>
<rect x="64.0181" y="666" width="33" height="19" transform="rotate(-90 64.0181 666)" fill="#D5D5D5"/>
<rect x="495.999" y="97.167" width="33" height="19" transform="rotate(-90 495.999 97.167)" fill="#D5D5D5"/>
<rect x="495.999" y="377.665" width="33" height="19" transform="rotate(-90 495.999 377.665)" fill="#D5D5D5"/>
<rect x="457" y="665" width="31" height="16" transform="rotate(-90 457 665)" fill="#D5D5D5"/>
<rect x="538" y="665" width="31" height="16" transform="rotate(-90 538 665)" fill="#D5D5D5"/>
<rect x="492.158" y="688.101" width="26.6816" height="16.3979" fill="#D5D5D5"/>
<rect x="612.066" y="66.8169" width="18.9006" height="26.2921" fill="#D9D9D9"/>
<rect x="746.837" y="66.8169" width="18.9006" height="26.2921" fill="#D9D9D9"/>
<rect x="148.849" y="347.979" width="18.9006" height="26.2921" fill="#D9D9D9"/>
<rect x="283.62" y="347.979" width="18.9006" height="26.2921" fill="#D9D9D9"/>
<rect x="612.066" y="347.979" width="18.9006" height="26.2921" fill="#D9D9D9"/>
<rect x="746.837" y="347.979" width="18.9006" height="26.2921" fill="#D9D9D9"/>
<path d="M53.3698 43.3734H35.3574V59.9071H53.3698V43.3734Z" fill="#7EA1A9"/>
<path d="M89.2407 68.7543V91.8384H77.5845V90.6258H67.9831C62.5487 94.5778 53.7745 102.906 44.2114 102.906C34.6484 102.906 26.3128 94.5778 20.8784 90.6258H12.3331V91.8384H0.657715V68.7543H12.3331V70.1511H20.6095C26.0631 66.0799 34.0605 59.0729 43.7963 59.0729C53.5322 59.0729 62.8175 66.0908 68.2519 70.1511H77.5845V68.7543H89.2407Z" fill="#92CDD9"/>
<path d="M70.9788 74.6165C69.9994 74.0213 68.8281 73.6564 67.5799 73.6564C66.1397 73.6564 64.7955 74.1365 63.7201 74.9238C61.8766 68.0684 56.4614 62.6531 49.606 60.8097C50.4125 59.7151 50.8734 58.3901 50.8734 56.9499C50.8734 55.7209 50.5085 54.5495 49.894 53.551C60.4748 55.7209 68.7897 64.0357 70.9788 74.6165Z" fill="#FC6D06"/>
<path d="M70.9787 85.7158C68.8088 96.1622 60.6668 104.4 50.278 106.685C50.6621 105.86 50.8733 104.938 50.8733 103.978C50.8733 102.326 50.2396 100.79 49.2026 99.6379C56.2693 97.8905 61.8381 92.3984 63.72 85.3893C64.7954 86.1767 66.1204 86.6567 67.5798 86.6567C68.828 86.6567 69.9994 86.2919 70.9787 85.6966V85.7158Z" fill="#FC6D06"/>
<path d="M37.8729 103.978C37.8729 104.938 38.0842 105.84 38.4682 106.685C28.0411 104.4 19.8798 96.1046 17.7483 85.6006C18.766 86.2727 19.9758 86.6568 21.3008 86.6568C22.6258 86.6568 23.9892 86.2151 25.0454 85.4662C26.9465 92.4368 32.5346 97.8905 39.5628 99.6379C38.5259 100.79 37.8921 102.326 37.8921 103.978H37.8729Z" fill="#FC6D06"/>
<path d="M39.1403 60.8097C32.2849 62.6531 26.9081 68.0107 25.0454 74.847C23.9892 74.0981 22.6834 73.6564 21.3008 73.6564C19.9182 73.6564 18.766 74.0404 17.7483 74.7125C19.899 64.1125 28.2331 55.7209 38.8523 53.551C38.2378 54.5495 37.8729 55.7017 37.8729 56.9499C37.8729 58.3901 38.353 59.7151 39.1403 60.8097Z" fill="#FC6D06"/>
<path d="M61.07 80.1661C61.07 81.4911 61.4733 82.7393 62.1454 83.757H51.6606C50.8541 85.3701 49.5675 86.6759 47.9545 87.444V98.5817C46.9175 97.8904 45.6694 97.4872 44.3636 97.4872C43.0578 97.4872 41.8095 97.8904 40.7726 98.5817V87.444C39.1595 86.6567 37.8537 85.3701 37.0664 83.757H26.7161C27.3882 82.7393 27.7915 81.4911 27.7915 80.1661C27.7915 78.8411 27.4074 77.6121 26.7161 76.5752H37.0664C37.8537 74.9621 39.1595 73.6564 40.7726 72.869V62.3651C41.8095 63.0372 43.0578 63.4596 44.3636 63.4596C45.6694 63.4596 46.9175 63.0564 47.9545 62.3651V72.869C49.5675 73.6564 50.8733 74.9621 51.6606 76.5752H62.1454C61.4541 77.5929 61.07 78.8219 61.07 80.1661Z" fill="#FC6D06"/>
<path d="M50.8733 56.9498C50.8733 58.3901 50.3932 59.7151 49.6059 60.8096C49.1451 61.4241 48.6074 61.9426 47.9545 62.3651C46.9175 63.0372 45.6694 63.4597 44.3636 63.4597C43.0578 63.4597 41.8095 63.0564 40.7726 62.3651C40.1389 61.9426 39.582 61.4241 39.1212 60.8096C38.3338 59.7151 37.8538 58.3901 37.8538 56.9498C37.8538 55.7209 38.2186 54.5495 38.8331 53.551C39.9469 51.6883 42.0208 50.4401 44.3636 50.4401C46.7063 50.4401 48.7802 51.6691 49.894 53.551C50.5084 54.5495 50.8733 55.7017 50.8733 56.9498Z" fill="#FC6D06"/>
<path d="M50.8734 103.978C50.8734 104.938 50.6622 105.84 50.2781 106.685C49.2603 108.932 47.0136 110.488 44.3828 110.488C41.752 110.488 39.4861 108.932 38.4683 106.685C38.0843 105.86 37.873 104.938 37.873 103.978C37.873 102.326 38.5067 100.79 39.5437 99.6379C39.9085 99.2346 40.3118 98.8506 40.7726 98.5625C41.8096 97.8712 43.0578 97.468 44.3636 97.468C45.6694 97.468 46.9176 97.8712 47.9546 98.5625C48.4346 98.8506 48.8379 99.2154 49.1835 99.6379C50.2205 100.79 50.8542 102.326 50.8542 103.978H50.8734Z" fill="#FC6D06"/>
<path d="M74.0896 80.1661C74.0896 82.5089 72.8607 84.5636 70.9788 85.7158C69.9994 86.3111 68.8281 86.6759 67.5799 86.6759C66.1397 86.6759 64.7954 86.1959 63.7201 85.4085C63.1056 84.9669 62.5679 84.3908 62.1454 83.7571C61.4733 82.7393 61.0701 81.4911 61.0701 80.1661C61.0701 78.8411 61.4541 77.6121 62.1454 76.5752C62.5679 75.9223 63.1056 75.3654 63.7201 74.9238C64.7954 74.1365 66.1205 73.6564 67.5799 73.6564C68.8281 73.6564 69.9994 74.002 70.9788 74.6165C72.8415 75.7495 74.0896 77.8234 74.0896 80.1661Z" fill="#FC6D06"/>
<path d="M27.7915 80.1661C27.7915 81.4911 27.3883 82.7393 26.7161 83.7571C26.2553 84.4292 25.6984 85.0053 25.0263 85.4854C23.9702 86.2343 22.6644 86.6759 21.2818 86.6759C19.8991 86.6759 18.747 86.2918 17.7292 85.6197C15.9433 84.4676 14.772 82.4705 14.772 80.1661C14.772 77.8618 15.9433 75.8647 17.7292 74.7125C18.747 74.0404 19.9568 73.6564 21.2818 73.6564C22.6068 73.6564 23.9702 74.098 25.0263 74.8469C25.6984 75.327 26.2553 75.9031 26.7161 76.5944C27.4075 77.6122 27.7915 78.8411 27.7915 80.1853V80.1661Z" fill="#FC6D06"/>
<path d="M47.3594 80.1661C47.3594 81.8176 46.0152 83.1426 44.3829 83.1426C42.7507 83.1426 41.4065 81.7984 41.4065 80.1661C41.4065 78.5339 42.7507 77.1897 44.3829 77.1897C46.0152 77.1897 47.3594 78.5339 47.3594 80.1661Z" fill="#FC6D06"/>
<g style="mix-blend-mode:multiply">
<path d="M63.72 74.9238C63.1055 75.3654 62.587 75.9223 62.1454 76.5752H51.6606C50.8733 74.9622 49.5675 73.6563 47.9736 72.8882V62.3651C48.6073 61.9426 49.145 61.4241 49.6251 60.8096C56.4805 62.6531 61.8958 68.0491 63.72 74.9238Z" fill="#CAD7D8"/>
</g>
<g style="mix-blend-mode:multiply">
<path d="M63.72 85.3893C61.8381 92.3984 56.2501 97.9097 49.2026 99.6379C48.8378 99.2347 48.4345 98.8698 47.9736 98.5626V87.4441C49.5867 86.6567 50.8925 85.3509 51.6606 83.7571H62.1454C62.5678 84.3908 63.1055 84.9669 63.72 85.4086V85.3893Z" fill="#CAD7D8"/>
</g>
<g style="mix-blend-mode:multiply">
<path d="M40.7918 87.4441V98.5626C40.3117 98.8698 39.9085 99.2347 39.5628 99.6379C32.5346 97.9097 26.9465 92.456 25.0454 85.4854C25.6983 85.0053 26.2744 84.4292 26.7353 83.7571H37.0664C37.8729 85.3701 39.1787 86.6759 40.7726 87.4441H40.7918Z" fill="#CAD7D8"/>
</g>
<g style="mix-blend-mode:multiply">
<path d="M40.7919 62.3651V72.8882C39.1788 73.6755 37.873 74.9814 37.0857 76.5752H26.7546C26.2937 75.9031 25.7176 75.3078 25.0647 74.8469C26.9466 68.0107 32.3042 62.6531 39.1596 60.8096C39.6013 61.4241 40.1582 61.9426 40.8111 62.3651H40.7919Z" fill="#CAD7D8"/>
</g>
<g style="mix-blend-mode:multiply">
<path d="M62.1454 83.7571H51.6606C50.8733 85.3893 49.5675 86.6759 47.9736 87.4441V98.5817C46.9175 97.8904 45.6885 97.468 44.3635 97.468V84.9285C46.9943 84.9285 49.1258 82.7969 49.1258 80.1661H61.07C61.07 81.5103 61.4733 82.7393 62.1454 83.7571Z" fill="#DEBFAC"/>
</g>
<g style="mix-blend-mode:multiply">
<path d="M37.0473 83.7571H26.7354C27.3883 82.7393 27.8107 81.5103 27.8107 80.1661H36.2216C36.2216 81.4527 36.5288 82.6817 37.0665 83.7571H37.0473Z" fill="#DEBFAC"/>
</g>
<g style="mix-blend-mode:multiply">
<path d="M47.9736 62.3651V72.8498C46.8791 72.3121 45.6693 72.0049 44.3635 72.0049V63.4596C45.6885 63.4596 46.9175 63.0564 47.9736 62.3651Z" fill="#DEBFAC"/>
</g>
<g style="mix-blend-mode:multiply">
<path d="M50.8925 56.9498C50.8925 58.3709 50.4125 59.7151 49.6251 60.8096C49.1643 61.4241 48.6074 61.9426 47.9737 62.3651C46.9175 63.0372 45.6886 63.4597 44.3636 63.4597C43.0386 63.4597 41.8095 63.0564 40.7726 62.3651C40.1389 61.9618 39.6012 61.4241 39.1212 60.8096C38.3146 59.7151 37.8538 58.3709 37.8538 56.9498C37.8538 56.1433 38.0074 55.3944 38.2762 54.7031C38.2762 55.4905 38.5451 56.2009 38.9291 56.8154C39.198 57.1995 39.5436 57.5643 39.9277 57.8524C40.5998 58.3517 41.4447 58.6589 42.3472 58.6589C43.1346 58.6589 43.8835 58.4285 44.4979 58.0444C45.6693 57.3339 46.4567 56.0281 46.4567 54.5495C46.4567 53.0709 45.6693 51.7651 44.4979 51.0546C44.1139 50.8241 43.6914 50.6513 43.2498 50.5553C43.6146 50.4785 43.9603 50.4401 44.3443 50.4401C46.7063 50.4401 48.761 51.6883 49.8748 53.551C50.5085 54.5495 50.8541 55.7017 50.8541 56.9691L50.8925 56.9498Z" fill="#DEBFAC"/>
</g>
<g style="mix-blend-mode:multiply">
<path d="M50.8925 103.997C50.8925 104.957 50.6813 105.879 50.278 106.685C49.2795 108.932 47.0136 110.488 44.3636 110.488C41.7136 110.488 39.4668 108.932 38.4683 106.685C38.065 105.86 37.8538 104.957 37.8538 103.997C37.8538 103.21 38.0074 102.442 38.257 101.731C38.257 102.576 38.5259 103.344 38.9291 103.978C39.198 104.381 39.5436 104.746 39.9277 105.015C40.5998 105.514 41.4447 105.821 42.3472 105.821C43.1346 105.821 43.8835 105.591 44.4979 105.207C45.6693 104.496 46.4567 103.19 46.4567 101.712C46.4567 100.233 45.6693 98.9274 44.4979 98.2168C44.0371 97.9288 43.4994 97.7368 42.9425 97.6408C43.3842 97.5448 43.8451 97.4872 44.3443 97.4872C45.6693 97.4872 46.8983 97.8904 47.9545 98.6009C48.4154 98.889 48.8378 99.2538 49.1835 99.6571C50.2204 100.809 50.8541 102.346 50.8541 104.016L50.8925 103.997Z" fill="#DEBFAC"/>
</g>
<g style="mix-blend-mode:multiply">
<path d="M74.0895 80.1661C74.0895 82.5089 72.8605 84.5636 70.9786 85.7158C69.9993 86.3111 68.8279 86.6759 67.5798 86.6759C66.1203 86.6759 64.7953 86.1958 63.72 85.3893C63.1055 84.9669 62.5678 84.3908 62.1261 83.7571C61.4732 82.7393 61.0508 81.5103 61.0508 80.1661C61.0508 79.7245 61.0891 79.302 61.1852 78.8987C61.3004 79.3596 61.4924 79.8013 61.7421 80.2046C62.0109 80.6078 62.3565 80.9534 62.7406 81.2415C63.4127 81.7408 64.2576 82.048 65.1602 82.048C65.9475 82.048 66.6772 81.8176 67.3109 81.4335C68.4823 80.723 69.2696 79.4172 69.2696 77.9386C69.2696 76.46 68.4823 75.1542 67.3109 74.4437C66.8884 74.1941 66.4084 74.002 65.8899 73.906C66.4276 73.7524 67.0037 73.6755 67.5798 73.6755C68.8279 73.6755 69.9801 74.0404 70.9786 74.6165C72.8605 75.7687 74.0895 77.8234 74.0895 80.1661Z" fill="#DEBFAC"/>
</g>
<g style="mix-blend-mode:multiply">
<path d="M27.8107 80.1661C27.8107 81.5103 27.4074 82.7393 26.7353 83.7571C26.2744 84.4292 25.6983 85.0245 25.0455 85.4854C23.9893 86.2343 22.6835 86.6759 21.3009 86.6759C19.9951 86.6759 18.7661 86.2727 17.7676 85.6006C15.9625 84.4676 14.8103 82.4513 14.8103 80.1661C14.8103 79.7437 14.8487 79.3212 14.9447 78.9179C15.0408 79.3788 15.252 79.8013 15.5016 80.2046C15.7704 80.6078 16.1161 80.9534 16.5002 81.2415C17.1723 81.7408 18.0172 82.048 18.9197 82.048C19.707 82.048 20.4368 81.8176 21.0705 81.4335C22.2418 80.723 23.0291 79.4172 23.0291 77.9386C23.0291 76.46 22.2418 75.1542 21.0705 74.4437C20.648 74.1941 20.1679 74.002 19.6494 73.906C20.1871 73.7524 20.7632 73.6755 21.3201 73.6755C22.7027 73.6755 24.0085 74.098 25.0646 74.8469C25.7175 75.3078 26.2936 75.9031 26.7545 76.5944C27.4266 77.6122 27.8299 78.8219 27.8299 80.1661H27.8107Z" fill="#DEBFAC"/>
</g>
<path d="M65.6196 31.2163C68.3941 19.525 61.1656 7.79813 49.4743 5.02365C37.783 2.24917 26.0562 9.47772 23.2817 21.169C20.5072 32.8603 27.7357 44.5871 39.427 47.3616C51.1183 50.1361 62.8451 42.9076 65.6196 31.2163Z" fill="#FC6D06"/>
<path d="M63.3744 26.1868C63.3744 36.6716 54.8675 45.1785 44.3827 45.1785C33.898 45.1785 25.3911 36.6716 25.3911 26.1868C25.3911 15.702 33.898 7.19513 44.3827 7.19513C54.8675 7.19513 63.3744 15.702 63.3744 26.1868Z" fill="#D6E0E0"/>
<path d="M40.1388 21.9622C38.4873 22.5575 37.0087 23.5176 35.7797 24.7466L30.9214 19.8883C32.8225 17.9872 35.146 16.4702 37.7384 15.5292L40.1196 21.9622H40.1388Z" fill="#56AE2C"/>
<path d="M49.5675 15.0491L47.6856 21.6357C46.6294 21.3477 45.5349 21.1748 44.4019 21.1748C42.9041 21.1748 41.4831 21.4437 40.1581 21.943L37.7769 15.51C39.8508 14.7419 42.0591 14.3194 44.4211 14.3194C46.2262 14.3194 47.9544 14.569 49.6058 15.0491H49.5675Z" fill="#F0F220"/>
<path d="M57.8056 19.8883L52.9473 24.7466C51.5071 23.3064 49.702 22.2118 47.6665 21.6549L49.5484 15.0684C52.6976 15.9325 55.5397 17.6415 57.7864 19.8883H57.8056Z" fill="#F98A1F"/>
<path d="M34.8582 31.6596H31.0176V36.4603H34.8582V31.6596Z" fill="#0C4352"/>
<path d="M31.8433 33.2919C31.8433 32.9654 31.9585 32.7158 32.1889 32.543C32.3809 32.3893 32.6498 32.3125 32.9762 32.3125C33.2835 32.3125 33.5331 32.3893 33.7443 32.5621C33.9556 32.735 34.0708 32.927 34.0708 33.1574C34.0708 33.4071 33.994 33.6183 33.8595 33.8487C33.7827 33.964 33.6099 34.1752 33.3411 34.4824C33.2643 34.5592 33.1491 34.6937 33.0146 34.8665L32.8994 35.0201C32.8994 35.0201 32.765 35.1737 32.7266 35.2313C32.7074 35.2506 32.7074 35.2698 32.7074 35.289H34.0516V35.8074H31.8816V35.3274C31.8816 35.3274 31.9393 35.2505 32.0353 35.1353C32.0737 35.0777 32.1313 35.0201 32.1889 34.9625L32.3617 34.7705C32.4577 34.6553 32.6306 34.4824 32.8418 34.252C33.053 34.0216 33.2067 33.8295 33.3027 33.6375C33.3795 33.4839 33.4371 33.3495 33.4371 33.215C33.4371 33.119 33.3987 33.023 33.3219 32.9462C33.2451 32.8694 33.1298 32.831 32.9954 32.831C32.8034 32.831 32.669 32.9078 32.5922 33.0806C32.573 33.1382 32.5538 33.1958 32.5538 33.2726V33.4071H31.8816V33.3111L31.8433 33.2919Z" fill="white"/>
<path d="M39.4285 31.6596H35.5879V36.4603H39.4285V31.6596Z" fill="#0C4352"/>
<path d="M37.2775 35.8074V33.119H36.7014V32.7542C36.855 32.7542 37.0279 32.6966 37.1623 32.6198C37.3159 32.5429 37.4119 32.4469 37.4887 32.3317H37.9688V35.8266H37.2967L37.2775 35.8074Z" fill="white"/>
<path d="M43.9988 31.6596H40.1582V36.4603H43.9988V31.6596Z" fill="#0C4352"/>
<path d="M41.7327 32.831V33.5799C41.7327 33.5799 41.9056 33.4455 42.0208 33.4071C42.0784 33.3879 42.1552 33.3687 42.2512 33.3687C42.5585 33.3687 42.7697 33.4455 42.9041 33.6183C43.0193 33.7527 43.0962 33.9448 43.0962 34.2136V34.9625C43.0962 35.2121 42.9809 35.4426 42.7697 35.5962C42.5584 35.7498 42.3088 35.8266 42.0016 35.8266C41.6943 35.8266 41.4639 35.7498 41.2526 35.577C41.0606 35.4234 40.9646 35.2314 40.9646 35.0009V34.9241L41.6175 34.8857V35.0009C41.6559 35.1353 41.7136 35.2313 41.848 35.289C41.8864 35.289 41.9248 35.3081 41.9632 35.3081C42.2512 35.3081 42.3857 35.1929 42.3857 34.9625V34.0984C42.3857 34.0024 42.3472 33.9063 42.232 33.8487C42.1936 33.8103 42.1168 33.7911 42.04 33.7911C41.9247 33.7911 41.8288 33.8295 41.7711 33.9063C41.7135 33.964 41.6943 34.0408 41.6943 34.1176V34.2136H41.0222V32.3125H43.0193V32.831H41.7135H41.7327Z" fill="white"/>
<path d="M48.5881 31.6596H44.7476V36.4603H48.5881V31.6596Z" fill="#0C4352"/>
<path d="M45.5542 34.5209L46.764 32.3125H47.436V34.5209H47.8777V35.0585H47.436V35.8074H46.764V35.0585H45.5542V34.5209ZM46.764 34.5209V33.4263L46.2071 34.5209H46.764Z" fill="white"/>
<path d="M53.1585 31.6596H49.3179V36.4603H53.1585V31.6596Z" fill="#0C4352"/>
<path d="M51.4686 33.1767V33.0807C51.4686 33.0807 51.4302 32.9271 51.3726 32.8695C51.315 32.8118 51.2382 32.7734 51.123 32.7734C51.0078 32.7734 50.9309 32.7926 50.8733 32.8695C50.8157 32.9271 50.7773 33.0039 50.7773 33.0807V33.772C50.931 33.6568 51.1038 33.6184 51.2958 33.6184C51.603 33.6184 51.8143 33.6952 51.9679 33.8488C52.1023 33.9832 52.1599 34.1944 52.1599 34.4441V35.0394C52.1599 35.2698 52.0447 35.4426 51.8527 35.5963C51.6607 35.7499 51.4302 35.8267 51.1422 35.8267C50.835 35.8267 50.6045 35.7499 50.3933 35.577C50.2012 35.4234 50.1052 35.2314 50.1052 35.001V33.0999C50.1052 32.9271 50.1628 32.7734 50.2588 32.639C50.3548 32.5046 50.5085 32.3894 50.7197 32.3318C50.8542 32.2934 50.9886 32.2742 51.123 32.2742C51.4302 32.2742 51.6607 32.351 51.8719 32.5238C52.0639 32.6774 52.1599 32.8694 52.1599 33.0999V33.1767H51.4495H51.4686ZM50.7965 35.001C50.7965 35.001 50.8157 35.1546 50.8733 35.2122C50.9309 35.2698 51.027 35.3082 51.123 35.3082C51.219 35.3082 51.315 35.2698 51.3726 35.2122C51.4302 35.1546 51.4686 35.0778 51.4686 35.001V34.3481C51.4686 34.252 51.411 34.1753 51.315 34.0984C51.2766 34.06 51.1998 34.06 51.123 34.06C51.0078 34.06 50.9117 34.0984 50.8541 34.1752C50.7965 34.2328 50.7773 34.3097 50.7773 34.3673V35.001H50.7965Z" fill="white"/>
<path d="M57.7288 31.6596H53.8882V36.4603H57.7288V31.6596Z" fill="#0C4352"/>
<path d="M56.903 35.0009C56.903 35.2314 56.8069 35.4234 56.5957 35.5962C56.3845 35.7498 56.1348 35.8267 55.8276 35.8267H55.77C55.4627 35.8267 55.2131 35.7498 55.0018 35.577C54.7906 35.4234 54.6946 35.2122 54.6946 34.9817V34.6553C54.6946 34.444 54.7906 34.252 54.9634 34.0984C55.0403 34.0216 55.1363 33.964 55.2323 33.9256C55.0403 33.8488 54.9059 33.7335 54.8099 33.5607C54.7522 33.4839 54.733 33.3687 54.733 33.2343V33.0422C54.733 32.8118 54.829 32.6198 55.0018 32.4854C55.1939 32.3125 55.4435 32.2357 55.77 32.2357H55.8276C56.1541 32.2357 56.4037 32.3125 56.5957 32.4854C56.7685 32.639 56.8454 32.831 56.8454 33.0422V33.2343C56.8454 33.4455 56.7685 33.6375 56.5957 33.772C56.5189 33.8296 56.4421 33.8872 56.3461 33.9256C56.5381 34.0216 56.7109 34.1368 56.8069 34.3288C56.8645 34.4248 56.8837 34.5401 56.8837 34.6553V34.9817L56.903 35.0009ZM56.2501 33.2151C56.2501 32.9846 56.154 32.831 55.962 32.7734C55.9236 32.7734 55.866 32.7542 55.8084 32.7542C55.6932 32.7542 55.5972 32.7734 55.5203 32.831C55.4627 32.8694 55.4243 32.927 55.3859 32.9846C55.3667 33.0422 55.3475 33.1382 55.3667 33.2151C55.3667 33.3687 55.4051 33.4839 55.4627 33.5415C55.5396 33.6375 55.6548 33.6759 55.8084 33.6759C55.962 33.6759 56.0964 33.6375 56.154 33.5415C56.2116 33.4647 56.2501 33.3495 56.2501 33.2151ZM56.2308 34.7513C56.2308 34.5401 56.1732 34.4056 56.0388 34.3288C55.9812 34.2904 55.9044 34.2712 55.8084 34.2712C55.6356 34.2712 55.5011 34.3288 55.4435 34.444C55.4051 34.5209 55.3859 34.6169 55.3859 34.7321V34.9049C55.3859 35.0201 55.4243 35.1161 55.5203 35.193C55.5972 35.2506 55.6932 35.289 55.8084 35.289C56.0004 35.289 56.1157 35.2122 56.1925 35.0777C56.2117 35.0393 56.2308 34.9817 56.2308 34.9241V34.7513Z" fill="white"/>
<path d="M31.5936 23.4216C31.5936 24.2281 30.9407 24.881 30.1341 24.881C29.3276 24.881 28.6555 24.2281 28.6555 23.4216C28.6555 22.6151 29.3084 21.9622 30.1341 21.9622C30.9599 21.9622 31.5936 22.6151 31.5936 23.4216Z" fill="#E0EDEE"/>
<path d="M31.5936 28.5872C31.5936 29.3937 30.9407 30.0466 30.1341 30.0466C29.3276 30.0466 28.6555 29.3937 28.6555 28.5872C28.6555 27.7806 29.3084 27.1277 30.1341 27.1277C30.9599 27.1277 31.5936 27.7806 31.5936 28.5872Z" fill="#E0EDEE"/>
<path d="M60.3019 23.4216C60.3019 24.2281 59.649 24.881 58.8424 24.881C58.0359 24.881 57.3831 24.2281 57.3831 23.4216C57.3831 22.6151 58.0359 21.9622 58.8424 21.9622C59.649 21.9622 60.3019 22.6151 60.3019 23.4216Z" fill="#E0EDEE"/>
<path d="M60.3019 28.5872C60.3019 29.3937 59.649 30.0466 58.8424 30.0466C58.0359 30.0466 57.3831 29.3937 57.3831 28.5872C57.3831 27.7806 58.0359 27.1277 58.8424 27.1277C59.649 27.1277 60.3019 27.7806 60.3019 28.5872Z" fill="#E0EDEE"/>
<path d="M43.0769 26.7629L50.2396 19.5426L44.786 28.1263L43.0769 26.7629Z" fill="#0C4352"/>
<g style="mix-blend-mode:multiply">
<path d="M60.2059 15.6829C57.2103 13.705 53.6001 12.5336 49.7211 12.5336C39.2171 12.5336 30.7295 21.0213 30.7295 31.5253C30.7295 35.4042 31.8816 39.0144 33.8787 42.01C28.7516 38.5919 25.3718 32.7734 25.3718 26.1676C25.3718 15.6828 33.8787 7.17596 44.3635 7.17596C50.9693 7.17596 56.7878 10.5557 60.2059 15.6636V15.6829Z" fill="#CAD7D8"/>
</g>
<g style="mix-blend-mode:multiply">
<path d="M34.8582 31.6596H31.0176V33.1382H34.8582V31.6596Z" fill="#DEBFAC"/>
</g>
<g style="mix-blend-mode:multiply">
<path d="M34.8582 34.9625H31.0176V36.4412H34.8582V34.9625Z" fill="#DEBFAC"/>
</g>
<g style="mix-blend-mode:multiply">
<path d="M39.4285 31.6596H35.5879V33.1382H39.4285V31.6596Z" fill="#DEBFAC"/>
</g>
<g style="mix-blend-mode:multiply">
<path d="M39.4285 34.9625H35.5879V36.4412H39.4285V34.9625Z" fill="#DEBFAC"/>
</g>
<g style="mix-blend-mode:multiply">
<path d="M43.9988 31.6596H40.1582V33.1382H43.9988V31.6596Z" fill="#DEBFAC"/>
</g>
<g style="mix-blend-mode:multiply">
<path d="M43.9988 34.9625H40.1582V36.4412H43.9988V34.9625Z" fill="#DEBFAC"/>
</g>
<g style="mix-blend-mode:multiply">
<path d="M48.5881 31.6596H44.7476V33.1382H48.5881V31.6596Z" fill="#DEBFAC"/>
</g>
<g style="mix-blend-mode:multiply">
<path d="M48.5881 34.9625H44.7476V36.4412H48.5881V34.9625Z" fill="#DEBFAC"/>
</g>
<g style="mix-blend-mode:multiply">
<path d="M53.1585 31.6596H49.3179V33.1382H53.1585V31.6596Z" fill="#DEBFAC"/>
</g>
<g style="mix-blend-mode:multiply">
<path d="M53.1585 34.9625H49.3179V36.4412H53.1585V34.9625Z" fill="#DEBFAC"/>
</g>
<g style="mix-blend-mode:multiply">
<path d="M57.7288 31.6596H53.8882V33.1382H57.7288V31.6596Z" fill="#DEBFAC"/>
</g>
<g style="mix-blend-mode:multiply">
<path d="M57.7288 34.9625H53.8882V36.4412H57.7288V34.9625Z" fill="#DEBFAC"/>
</g>
<g style="mix-blend-mode:multiply">
<path d="M104.891 85.1631V88.1145H89.2407V72.0594H93.811L96.5762 85.1631H104.891Z" fill="#9AB7BD"/>
</g>
<path d="M495.919 715.356L515.001 715.356L515.001 709.346L495.919 709.346L495.919 715.356Z" fill="#C45708"/>
<path d="M493.031 729.638L517.927 729.638L517.927 715.316L493.031 715.316L493.031 729.638Z" fill="#FC6D06"/>
<path opacity="0.27" d="M511.059 729.638L511.059 719.999C511.059 719.101 511.801 718.36 512.698 718.36L517.927 718.36L517.927 729.638L511.059 729.638Z" fill="white"/>
<g style="mix-blend-mode:multiply" opacity="0.55">
<path d="M500.796 729.638L500.796 719.999C500.796 719.101 501.498 718.36 502.435 718.36L508.561 718.36C509.459 718.36 510.2 719.102 510.2 719.999L510.2 729.638L500.796 729.638Z" fill="#DCC6B8"/>
</g>
<g style="mix-blend-mode:multiply">
<path d="M493.031 729.638L493.031 718.36L498.221 718.36C499.119 718.36 499.86 719.102 499.86 719.999L499.86 729.638L493.031 729.638Z" fill="#DCC6B8"/>
</g>
<g style="mix-blend-mode:multiply">
<path d="M497.999 709.346L513.951 709.346L513.951 704L497.999 704L497.999 709.346Z" fill="#DCC6B8"/>
</g>
<path d="M969.448 660.009L969.448 640.927L963.438 640.927L963.438 660.009L969.448 660.009Z" fill="#C45708"/>
<path d="M983.73 662.897L983.73 638L969.408 638L969.408 662.897L983.73 662.897Z" fill="#FC6D06"/>
<path opacity="0.27" d="M983.73 644.868L974.091 644.868C973.194 644.868 972.452 644.127 972.452 643.229L972.452 638L983.73 638L983.73 644.868Z" fill="white"/>
<g style="mix-blend-mode:multiply" opacity="0.55">
<path d="M983.73 655.132L974.091 655.132C973.194 655.132 972.452 654.429 972.452 653.493L972.452 647.366C972.452 646.468 973.194 645.727 974.091 645.727L983.73 645.727L983.73 655.132Z" fill="#DCC6B8"/>
</g>
<g style="mix-blend-mode:multiply">
<path d="M983.73 662.896L972.452 662.896L972.452 657.706C972.452 656.809 973.194 656.067 974.091 656.067L983.73 656.067L983.73 662.896Z" fill="#DCC6B8"/>
</g>
<g style="mix-blend-mode:multiply">
<path d="M963.438 657.929L963.438 641.977L958.092 641.977L958.092 657.929L963.438 657.929Z" fill="#DCC6B8"/>
</g>
<rect x="163.939" y="36.9199" width="122.105" height="86.0856" rx="5" fill="#E9E9E9"/>
<path d="M208.204 88.9427C206.151 86.3027 205.124 82.8894 205.124 78.7027C205.124 74.5161 206.151 71.1161 208.204 68.5027C210.284 65.8627 213.391 64.5427 217.524 64.5427C221.658 64.5427 224.751 65.8627 226.804 68.5027C228.884 71.1161 229.924 74.5161 229.924 78.7027C229.924 82.8894 228.884 86.3027 226.804 88.9427C224.751 91.5561 221.658 92.8627 217.524 92.8627C213.391 92.8627 210.284 91.5561 208.204 88.9427ZM217.524 87.5827C221.791 87.5827 223.924 84.6227 223.924 78.7027C223.924 72.7827 221.791 69.8227 217.524 69.8227C213.258 69.8227 211.124 72.7827 211.124 78.7027C211.124 84.6227 213.258 87.5827 217.524 87.5827ZM240.286 65.1027H244.646V87.1427H249.206V92.3027H233.686V87.1427H238.806V71.1027L233.686 73.0227V67.6227L240.286 65.1027Z" fill="#0A3CC2"/>
<rect x="627.155" y="36.9199" width="122.105" height="86.0856" rx="5" fill="#E9E9E9"/>
<path d="M666.855 88.9427C664.801 86.3027 663.775 82.8894 663.775 78.7027C663.775 74.5161 664.801 71.1161 666.855 68.5027C668.935 65.8627 672.041 64.5427 676.175 64.5427C680.308 64.5427 683.401 65.8627 685.455 68.5027C687.535 71.1161 688.575 74.5161 688.575 78.7027C688.575 82.8894 687.535 86.3027 685.455 88.9427C683.401 91.5561 680.308 92.8627 676.175 92.8627C672.041 92.8627 668.935 91.5561 666.855 88.9427ZM676.175 87.5827C680.441 87.5827 682.575 84.6227 682.575 78.7027C682.575 72.7827 680.441 69.8227 676.175 69.8227C671.908 69.8227 669.775 72.7827 669.775 78.7027C669.775 84.6227 671.908 87.5827 676.175 87.5827ZM692.817 67.4227C695.51 65.5027 698.63 64.5427 702.177 64.5427C705.084 64.5427 707.457 65.2227 709.297 66.5827C711.164 67.9427 712.097 69.9427 712.097 72.5827C712.097 74.6361 711.43 76.3961 710.097 77.8627C708.79 79.3027 707.004 80.6894 704.737 82.0227C702.07 83.5961 700.43 84.6627 699.817 85.2227C699.097 85.9161 698.724 86.5694 698.697 87.1827L712.297 87.1427V92.3027H691.897V89.6227C691.897 88.1561 692.11 86.8361 692.537 85.6627C692.99 84.4894 693.71 83.4361 694.697 82.5027C695.71 81.5694 696.55 80.8761 697.217 80.4227C697.884 79.9427 698.897 79.3027 700.257 78.5027C700.337 78.4494 700.404 78.4094 700.457 78.3827C700.51 78.3561 700.577 78.3161 700.657 78.2627C700.737 78.2094 700.804 78.1694 700.857 78.1427C701.017 78.0361 701.35 77.8494 701.857 77.5827C702.39 77.2894 702.737 77.0894 702.897 76.9827C703.057 76.8761 703.337 76.7027 703.737 76.4627C704.137 76.1961 704.417 75.9961 704.577 75.8627C704.737 75.7027 704.937 75.4894 705.177 75.2227C705.444 74.9561 705.63 74.7161 705.737 74.5027C705.844 74.2894 705.937 74.0361 706.017 73.7427C706.097 73.4494 706.137 73.1427 706.137 72.8227C706.137 71.8361 705.737 71.0894 704.937 70.5827C704.137 70.0494 703.03 69.7827 701.617 69.7827C698.577 69.7827 695.644 70.8627 692.817 73.0227V67.4227Z" fill="#0A3CC2"/>
<rect x="163.939" y="318.082" width="122.105" height="86.0856" rx="5" fill="#E9E9E9"/>
<path d="M203.638 370.104C201.585 367.464 200.558 364.051 200.558 359.864C200.558 355.678 201.585 352.278 203.638 349.664C205.718 347.024 208.825 345.704 212.958 345.704C217.091 345.704 220.185 347.024 222.238 349.664C224.318 352.278 225.358 355.678 225.358 359.864C225.358 364.051 224.318 367.464 222.238 370.104C220.185 372.718 217.091 374.024 212.958 374.024C208.825 374.024 205.718 372.718 203.638 370.104ZM212.958 368.744C217.225 368.744 219.358 365.784 219.358 359.864C219.358 353.944 217.225 350.984 212.958 350.984C208.691 350.984 206.558 353.944 206.558 359.864C206.558 365.784 208.691 368.744 212.958 368.744ZM248.16 353.224C248.16 354.611 247.787 355.824 247.04 356.864C246.32 357.878 245.32 358.611 244.04 359.064C245.56 359.518 246.814 360.331 247.8 361.504C248.787 362.651 249.28 364.158 249.28 366.024C249.28 367.411 248.974 368.638 248.36 369.704C247.774 370.744 246.96 371.571 245.92 372.184C244.88 372.798 243.72 373.251 242.44 373.544C241.187 373.864 239.84 374.024 238.4 374.024C235.067 374.024 231.92 373.411 228.96 372.184V366.624C231.574 368.091 234.56 368.798 237.92 368.744C239.6 368.744 240.96 368.451 242 367.864C243.04 367.278 243.56 366.384 243.56 365.184C243.56 363.078 241.987 362.024 238.84 362.024H234.36L234.4 356.904L238.16 356.944C239.52 356.944 240.574 356.704 241.32 356.224C242.094 355.718 242.48 354.998 242.48 354.064C242.48 353.078 242.054 352.318 241.2 351.784C240.347 351.224 239.107 350.944 237.48 350.944C234.787 350.944 232.107 351.758 229.44 353.384V347.824C232.054 346.411 235.014 345.704 238.32 345.704C241.254 345.704 243.627 346.358 245.44 347.664C247.254 348.971 248.16 350.824 248.16 353.224Z" fill="#0A3CC2"/>
<rect x="627.155" y="318.082" width="122.105" height="86.0856" rx="5" fill="#E9E9E9"/>
<path d="M665.549 370.104C663.496 367.464 662.469 364.051 662.469 359.864C662.469 355.678 663.496 352.278 665.549 349.664C667.629 347.024 670.736 345.704 674.869 345.704C679.002 345.704 682.096 347.024 684.149 349.664C686.229 352.278 687.269 355.678 687.269 359.864C687.269 364.051 686.229 367.464 684.149 370.104C682.096 372.718 679.002 374.024 674.869 374.024C670.736 374.024 667.629 372.718 665.549 370.104ZM674.869 368.744C679.136 368.744 681.269 365.784 681.269 359.864C681.269 353.944 679.136 350.984 674.869 350.984C670.602 350.984 668.469 353.944 668.469 359.864C668.469 365.784 670.602 368.744 674.869 368.744ZM703.911 346.264H709.871V363.504H713.991V368.504H709.871V373.464H704.151V368.504H689.871V363.544L703.911 346.264ZM704.151 363.504V353.584L696.111 363.504H704.151Z" fill="#0A3CC2"/>
</svg>
